<svg width="301" height="403" viewBox="0 0 301 403" fill="none" xmlns="http://www.w3.org/2000/svg">
<path fill-rule="evenodd" clip-rule="evenodd" d="M160.043 91.0374C159.537 90.4048 159.049 89.764 158.577 89.1157C159.088 89.773 159.578 90.4157 160.043 91.0374Z" fill="#F2F4EF"/>
<path d="M171.969 111.187C167.737 110.369 162.877 110.272 157.313 111.073C156.592 103.236 154.444 98.2477 160.043 91.0374C163.875 86.1017 169.6 80.5734 175.725 83.6711C178.799 85.2255 184.71 93.3875 184.578 97.639C184.342 105.208 179.358 106.04 171.969 111.187Z" fill="#F2F4EF"/>
<path d="M171.969 111.187C179.358 106.04 184.342 105.208 184.578 97.639C222.374 95.1744 220.175 102.774 214.35 106.881C209.08 110.402 198.54 119.38 198.54 127.126C198.54 129.822 196.394 129.745 193.221 128.138C187.28 125.128 177.743 116.755 171.969 111.187Z" fill="#F2F4EF"/>
<path d="M160.043 91.0374C154.444 98.2477 156.592 103.236 157.313 111.073C119.781 115.13 119.259 107.328 123.689 102.92C126.623 101.16 132.579 93.414 132.931 76.514C133.265 60.4982 149.33 77.2096 158.577 89.1157C159.049 89.764 159.537 90.4048 160.043 91.0374Z" fill="#F2F4EF"/>
<path d="M162.198 146.711C178.059 152.76 170.072 165.304 181.756 159.422C183.546 165.277 185.065 174.191 184.578 183.726C183.88 197.375 179.069 212.297 165.053 221.343C162.31 223.114 159.608 224.214 156.964 224.746C136.656 228.825 119.712 199.348 113.194 182.113C111.705 176.415 136.627 173.737 151.856 165.003C158.911 160.956 158.927 148.857 162.198 146.711Z" fill="#F2F4EF"/>
<path d="M184.578 183.726C185.065 174.191 183.546 165.277 181.756 159.422C186.06 156.597 195.24 153.759 197.521 165.003C199.803 176.247 189.843 182.17 184.578 183.726Z" fill="#F2F4EF"/>
<path d="M165.053 221.343C179.069 212.297 183.88 197.375 184.578 183.726C187.073 197.365 193.358 225.258 198.54 227.719C201.133 228.95 212.462 228.174 226.12 229.882C213.523 249.312 178.911 281.488 141.236 254.757C148.905 247.671 155.634 242.653 160.043 239.92L156.964 224.746C159.608 224.214 162.31 223.114 165.053 221.343Z" fill="#F2F4EF"/>
<path d="M285.151 292.408C292.783 315.711 298.4 362.317 259.812 362.317C248.062 362.317 236.119 361.494 224.753 360.223C198.793 357.321 175.839 352.085 165.053 348.997C158.136 342.651 151.318 325.159 197.521 327.697L245.214 333.131L245.214 299.236L285.151 292.408Z" fill="#F2F4EF"/>
<path d="M130.493 265.501L145.54 299.236C142.543 301.387 131.877 310.091 113.194 327.697C94.5114 345.303 80.5849 320.361 74.1644 309.992L47.9445 262.319C42.379 251.678 36.3992 231.097 50.4327 223.685C52.4964 222.595 54.993 221.79 57.9873 221.343C87.182 216.986 84.6093 231.465 66.2769 246.892L72.9612 254.757L102.711 289.763L130.493 265.501Z" fill="#F2F4EF"/>
<path d="M66.2771 246.892C84.6093 231.465 87.1821 216.987 57.9875 221.344C54.9932 221.791 52.4967 222.596 50.433 223.686L45.2913 208.426C43.7227 203.771 46.2682 198.732 50.9462 197.233L65.6426 192.523C70.3262 191.022 75.331 193.65 76.7543 198.358L89.1441 239.339C90.4436 243.637 88.2992 248.225 84.1679 249.984L72.9613 254.757L66.2771 246.892Z" fill="#F2F4EF"/>
<path fill-rule="evenodd" clip-rule="evenodd" d="M149.832 175.901C149.356 176.749 149.658 177.822 150.506 178.297L156.635 181.737C157.483 182.213 158.556 181.911 159.032 181.063C159.508 180.215 159.206 179.142 158.358 178.667L152.229 175.227C151.381 174.751 150.308 175.053 149.832 175.901ZM125.033 181.484C124.424 182.242 124.545 183.35 125.303 183.959L129.791 187.565C130.549 188.174 131.657 188.053 132.266 187.295C132.875 186.537 132.754 185.429 131.996 184.82L127.508 181.214C126.75 180.605 125.642 180.726 125.033 181.484ZM149.247 198.685C149.247 197.713 148.459 196.924 147.486 196.924H141.149C140.177 196.924 139.388 197.713 139.388 198.685C139.388 199.657 140.177 200.445 141.149 200.445H147.486C148.459 200.445 149.247 199.657 149.247 198.685ZM160.452 198.692C159.484 198.783 158.773 199.641 158.864 200.609C159.058 202.68 158.921 205.63 158.018 207.854C157.574 208.947 156.995 209.743 156.301 210.224C155.646 210.679 154.737 210.962 153.377 210.767C152.414 210.63 151.523 211.299 151.385 212.261C151.248 213.224 151.916 214.115 152.879 214.253C155.013 214.558 156.84 214.137 158.309 213.116C159.74 212.123 160.674 210.672 161.28 209.179C162.478 206.23 162.591 202.648 162.369 200.281C162.278 199.313 161.42 198.602 160.452 198.692Z" fill="#222B27"/>
<path d="M184.578 97.639C184.71 93.3875 178.799 85.2255 175.725 83.6711C169.6 80.5734 163.875 86.1017 160.043 91.0374C131.881 55.7849 156.313 -4.90543 198.54 16.2196C240.767 37.3446 226.329 88.3076 184.578 97.639Z" fill="#222B27"/>
<path d="M181.756 159.422C170.072 165.304 178.059 152.76 162.198 146.711C158.927 148.857 158.911 160.956 151.856 165.003C136.627 173.737 111.705 176.415 113.194 182.113C101.808 166.863 91.9043 131.997 143.381 114.529C148.455 112.807 153.087 111.681 157.313 111.073C162.877 110.272 167.737 110.369 171.969 111.187C177.743 116.755 187.28 125.128 193.221 128.138C198.672 139.554 199.04 154.244 197.521 165.003C195.24 153.759 186.06 156.597 181.756 159.422Z" fill="#222B27"/>
<path d="M269.202 254.757C278.035 267.235 280.851 272.003 285.151 292.408L245.214 299.236L245.214 333.131L197.521 327.697C151.318 325.159 158.136 342.651 165.053 348.997C175.839 352.085 198.793 357.321 224.753 360.223C190.763 361.476 150.98 362.317 145.54 362.317L145.54 299.236L130.493 265.501C134.18 261.518 137.802 257.93 141.236 254.757C178.911 281.488 213.523 249.312 226.12 229.882C242.583 231.942 256.94 237.438 269.202 254.757Z" fill="#222B27"/>
<path fill-rule="evenodd" clip-rule="evenodd" d="M171.432 15.6636C178.679 12.6212 187.584 12.7069 197.753 17.794C218.187 28.0165 224.703 45.2611 221.33 60.9826C218.039 76.3218 205.275 90.4831 186.073 95.4675C185.887 94.7065 185.617 93.9398 185.305 93.1989C184.669 91.6854 183.787 90.119 182.818 88.6667C181.848 87.2126 180.766 85.8363 179.708 84.7076C178.682 83.6124 177.567 82.6297 176.52 82.1001C172.755 80.1963 169.135 81.0157 166.116 82.8338C163.836 84.2071 161.799 86.1991 160.09 88.1929C160.055 88.1484 160.021 88.1039 159.986 88.0593C147.737 71.2029 147.158 49.0231 154.493 33.2284C158.289 25.0547 164.14 18.7247 171.432 15.6636ZM149.853 76.4562C144.269 61.2809 145.343 44.5714 151.299 31.7455C155.37 22.9806 161.783 15.8957 170.069 12.4172C178.4 8.91986 188.383 9.16976 199.328 14.6452C221.121 25.5477 228.5 44.3472 224.773 61.7212C221.789 75.6275 211.731 88.4348 196.69 95.4013C200.389 95.3743 203.516 95.4865 206.145 95.7117C211.224 96.147 214.653 97.0186 216.74 98.2932C217.811 98.9474 218.645 99.7791 219.081 100.825C219.528 101.897 219.466 102.979 219.134 103.935C218.514 105.721 216.905 107.234 215.365 108.32C215.353 108.328 215.341 108.337 215.329 108.345C212.789 110.042 208.954 113.074 205.777 116.598C202.525 120.204 200.301 123.955 200.301 127.126C200.301 128.004 200.131 128.921 199.582 129.679C198.994 130.493 198.145 130.885 197.289 130.993C196.977 131.032 196.661 131.034 196.346 131.009C200.476 142.083 200.651 155.141 199.306 164.955C200.449 171.079 198.299 175.828 195.169 179.196C192.561 182.002 189.269 183.867 186.587 184.899C187.861 191.647 189.912 201.151 192.246 209.437C193.504 213.901 194.829 217.961 196.142 221.033C196.8 222.572 197.434 223.812 198.027 224.716C198.655 225.672 199.099 226.036 199.296 226.129C199.401 226.179 199.673 226.269 200.207 226.36C200.715 226.447 201.364 226.519 202.159 226.581C203.704 226.701 205.669 226.771 208.017 226.854L208.244 226.863C213.108 227.036 219.424 227.271 226.338 228.136C243.149 230.238 258.018 235.912 270.639 253.74C275.055 259.977 278.062 264.417 280.487 269.898C282.901 275.355 284.706 281.771 286.854 291.952C290.7 303.734 294.076 321.471 291.55 336.395C290.28 343.898 287.492 350.843 282.362 355.922C277.197 361.036 269.839 364.077 259.812 364.077C248.028 364.077 236.065 363.255 224.688 361.987C190.722 363.237 151.007 364.077 145.541 364.077C144.568 364.077 143.78 363.289 143.78 362.317L143.78 302.818C138.944 306.699 129.215 315.019 114.402 328.979C109.496 333.601 104.707 335.605 100.107 335.577C95.5379 335.549 91.4695 333.519 87.9772 330.707C81.6883 325.642 76.7675 317.607 73.566 312.38C73.2498 311.864 72.9504 311.375 72.6681 310.919C72.6522 310.893 72.6369 310.867 72.6223 310.84L46.4024 263.168L46.3849 263.135C43.5313 257.679 40.5379 249.626 40.082 241.895C39.6514 234.593 41.4957 227.196 48.3056 222.884L43.6231 208.987C41.7408 203.401 44.7954 197.355 50.4091 195.556L65.1056 190.846C70.7259 189.045 76.7317 192.199 78.4397 197.848L90.8296 238.829C92.389 243.987 89.8157 249.492 84.858 251.604L75.8518 255.44L102.897 287.263L129.265 264.237C132.962 260.246 136.595 256.649 140.042 253.464C147.203 246.847 153.58 241.991 158.077 239.082L155.574 226.748C145.13 227.972 135.847 221.208 128.562 212.556C120.874 203.425 114.957 191.682 111.635 182.966C105.818 175.081 100.345 162.158 102.987 148.811C105.574 135.744 115.817 122.82 139.702 113.966C138.203 113.972 136.813 113.945 135.526 113.889C130.184 113.656 126.466 112.908 124.02 111.766C121.532 110.603 120.057 108.853 120.036 106.641C120.016 104.649 121.212 102.901 122.447 101.672C122.548 101.572 122.661 101.484 122.783 101.411C123.831 100.782 125.856 98.7559 127.67 94.6787C129.462 90.653 130.999 84.7275 131.171 76.4773C131.218 74.2434 131.552 72.3973 132.264 70.9997C133.015 69.5254 134.195 68.55 135.733 68.2539C137.16 67.979 138.647 68.3393 140.02 68.934C141.417 69.5391 142.881 70.4676 144.348 71.5787C146.123 72.9231 147.99 74.6023 149.853 76.4562ZM157.836 91.0681C157.61 90.7712 157.388 90.4727 157.17 90.1726C152.839 84.5999 147.07 78.0564 142.222 74.3855C140.878 73.3677 139.664 72.6169 138.621 72.1647C137.552 71.7021 136.835 71.6271 136.399 71.7112C136.073 71.774 135.73 71.9518 135.401 72.5973C135.034 73.3194 134.733 74.5595 134.691 76.5506C134.511 85.2005 132.895 91.5979 130.887 96.1102C128.973 100.412 126.653 103.101 124.799 104.302C123.915 105.224 123.551 106.051 123.556 106.607C123.56 106.972 123.731 107.744 125.511 108.576C127.334 109.428 130.507 110.146 135.68 110.372C140.492 110.582 146.915 110.363 155.376 109.506C155.285 108.745 155.186 108.008 155.088 107.279C155.025 106.809 154.962 106.342 154.902 105.873C154.685 104.175 154.509 102.482 154.548 100.779C154.622 97.6059 155.443 94.5126 157.836 91.0681ZM158.873 109.098C158.775 108.281 158.67 107.496 158.569 106.747C158.508 106.293 158.449 105.852 158.394 105.426C158.181 103.761 158.035 102.286 158.068 100.861C158.132 98.1156 158.862 95.429 161.434 92.1171C163.311 89.6993 165.54 87.2912 167.933 85.8497C170.267 84.4441 172.571 84.0482 174.931 85.242C175.421 85.4897 176.198 86.1102 177.14 87.1153C178.05 88.0871 179.014 89.3084 179.89 90.6206C180.766 91.9345 181.53 93.303 182.06 94.5641C182.605 95.8597 182.84 96.8922 182.818 97.5843C182.766 99.2805 182.451 100.488 181.975 101.433C181.5 102.377 180.809 103.168 179.842 103.958C178.851 104.768 177.631 105.531 176.107 106.46C175.978 106.539 175.846 106.619 175.713 106.7C174.472 107.455 173.075 108.305 171.571 109.325C167.778 108.673 163.558 108.569 158.873 109.098ZM174.775 111.428C175.744 110.803 176.668 110.241 177.55 109.704C177.681 109.624 177.811 109.545 177.939 109.467C179.435 108.555 180.862 107.672 182.07 106.684C183.302 105.677 184.363 104.519 185.12 103.017C185.673 101.919 186.034 100.696 186.213 99.3007C194.839 98.7857 201.215 98.823 205.844 99.2197C210.801 99.6445 213.545 100.467 214.904 101.298C215.557 101.696 215.764 102.02 215.831 102.179C215.886 102.312 215.911 102.485 215.808 102.78C215.56 103.494 214.715 104.467 213.353 105.43C210.623 107.257 206.564 110.467 203.162 114.24C199.826 117.94 196.78 122.551 196.78 127.126C196.78 127.302 196.766 127.424 196.752 127.505C196.59 127.505 196.312 127.473 195.89 127.349C195.378 127.197 194.752 126.94 194.017 126.567C191.231 125.156 187.486 122.417 183.651 119.262C180.511 116.68 177.381 113.878 174.775 111.428ZM171.13 112.822C173.994 115.567 177.692 118.919 181.415 121.981C185.057 124.977 188.817 127.773 191.879 129.422C195.904 138.187 196.927 148.957 196.412 158.254C196.264 158.081 196.113 157.915 195.957 157.757C194.388 156.16 192.498 155.397 190.59 155.187C186.939 154.785 183.199 156.391 180.878 157.893C179.522 158.571 178.542 158.935 177.828 159.095C177.11 159.255 176.781 159.182 176.639 159.127C176.506 159.076 176.325 158.959 176.066 158.582C175.785 158.174 175.516 157.619 175.144 156.808C175.107 156.727 175.07 156.645 175.031 156.561C174.331 155.027 173.391 152.967 171.637 150.928C169.767 148.755 167.043 146.674 162.826 145.066C162.298 144.864 161.705 144.929 161.233 145.239C160.518 145.708 159.995 146.376 159.596 147.04C159.191 147.712 158.852 148.485 158.55 149.278C158.192 150.216 157.831 151.342 157.466 152.481C157.239 153.188 157.011 153.9 156.78 154.576C155.481 158.388 153.879 161.813 150.98 163.476C144.345 167.281 135.783 169.918 128.287 172.226C127.42 172.493 126.567 172.756 125.733 173.015C121.785 174.244 118.192 175.426 115.675 176.691C114.611 177.226 113.623 177.831 112.865 178.544C108.098 171.108 104.292 160.351 106.441 149.495C108.815 137.504 118.586 124.802 143.947 116.196C148.934 114.503 153.461 113.406 157.564 112.815C162.741 112.07 167.235 112.134 171.13 112.822ZM114.891 181.623C114.892 181.616 114.894 181.61 114.896 181.603C114.908 181.566 114.953 181.455 115.115 181.274C115.463 180.885 116.14 180.398 117.256 179.837C119.469 178.724 122.778 177.622 126.779 176.377C127.605 176.12 128.458 175.858 129.331 175.589C136.766 173.303 145.729 170.546 152.732 166.53C156.889 164.146 158.822 159.498 160.113 155.712C160.396 154.882 160.641 154.114 160.871 153.394C161.205 152.349 161.506 151.408 161.84 150.532C162.109 149.826 162.363 149.27 162.613 148.854C162.625 148.833 162.638 148.813 162.65 148.794C165.725 150.125 167.656 151.699 168.968 153.224C170.389 154.876 171.148 156.536 171.857 158.085C171.886 158.148 171.914 158.211 171.943 158.274C172.295 159.041 172.683 159.878 173.165 160.578C173.668 161.309 174.355 162.017 175.365 162.409C176.364 162.797 177.452 162.787 178.596 162.531C179.218 162.392 179.891 162.172 180.623 161.876C182.106 167.499 183.245 175.327 182.82 183.636C182.138 196.979 177.457 211.243 164.099 219.864C161.522 221.528 159.024 222.536 156.618 223.02C147.461 224.859 138.747 219.186 131.255 210.288C123.871 201.518 118.114 190.106 114.891 181.623ZM183.827 160.238C185.717 159.225 188.103 158.456 190.205 158.687C191.415 158.82 192.517 159.279 193.446 160.224C194.392 161.187 195.273 162.774 195.796 165.353C196.806 170.326 195.136 174.06 192.59 176.799C190.75 178.779 188.457 180.223 186.423 181.15C186.538 173.097 185.33 165.647 183.827 160.238ZM184.932 194.423C186.052 199.579 187.398 205.212 188.857 210.392C190.131 214.913 191.504 219.141 192.905 222.417C193.604 224.053 194.331 225.502 195.084 226.648C195.801 227.741 196.686 228.787 197.786 229.309C198.329 229.567 198.977 229.722 199.613 229.831C200.274 229.944 201.042 230.026 201.887 230.091C203.507 230.217 205.538 230.289 207.839 230.371L208.118 230.381C212.283 230.53 217.411 230.721 223.033 231.302C216.565 240.468 205.704 251.653 192.324 258.041C178.352 264.712 161.643 266.169 144.064 254.56C150.984 248.32 156.987 243.885 160.971 241.416C161.597 241.028 161.915 240.292 161.768 239.57L159.026 226.055C161.345 225.393 163.676 224.328 166.008 222.823C177.029 215.709 182.559 205.151 184.932 194.423ZM141.398 257.012C160.412 269.923 178.731 268.433 193.841 261.219C208.678 254.135 220.43 241.551 226.984 231.77C242.639 233.89 256.131 239.341 267.765 255.774C272.183 262.015 275 266.198 277.267 271.322C279.4 276.144 281.073 281.866 283.047 290.982L244.918 297.501C244.073 297.646 243.454 298.379 243.454 299.236L243.454 331.158L197.721 325.948C197.687 325.944 197.653 325.941 197.618 325.94C185.98 325.3 177.554 325.913 171.572 327.35C165.613 328.783 161.851 331.092 159.899 334.044C157.905 337.06 158.036 340.377 159.053 343.227C160.06 346.045 161.972 348.559 163.864 350.294C164.065 350.479 164.307 350.615 164.569 350.69C172.48 352.955 186.829 356.352 204.093 359.157C178.861 359.937 154.788 360.454 147.301 360.543L147.301 299.236C147.301 298.989 147.249 298.745 147.148 298.519L132.575 265.848C135.59 262.63 138.554 259.681 141.398 257.012ZM129.856 268.395L143.36 298.668C139.196 301.866 128.816 310.557 111.987 326.416C107.551 330.596 103.594 332.077 100.128 332.056C96.6302 332.035 93.3126 330.483 90.1855 327.964C84.4063 323.31 79.8058 315.814 76.5532 310.514C76.2524 310.024 75.9631 309.552 75.6854 309.104L49.5049 261.503C49.5021 261.498 49.4994 261.493 49.4967 261.488C46.7874 256.303 44.0133 248.753 43.5967 241.688C43.1807 234.632 45.103 228.491 51.2553 225.242C53.1158 224.259 55.4164 223.507 58.2475 223.085C65.4566 222.009 70.4827 222.136 73.7099 223.025C76.8664 223.895 77.9867 225.367 78.2124 226.947C78.4746 228.783 77.6559 231.437 75.3679 234.786C73.1239 238.07 69.6512 241.752 65.1438 245.545C64.7854 245.847 64.562 246.278 64.523 246.745C64.484 247.212 64.6325 247.675 64.9358 248.032L101.324 290.849L105.003 295.962C105.571 296.751 106.671 296.931 107.46 296.363C108.249 295.795 108.429 294.695 107.861 293.906L105.076 290.035L129.856 268.395ZM246.975 331.37L246.975 300.721L283.939 294.401C287.506 305.88 290.378 322.222 288.078 335.807C286.883 342.869 284.317 349.032 279.885 353.42C275.49 357.772 269.079 360.557 259.812 360.557C248.141 360.557 236.266 359.739 224.949 358.474C199.416 355.619 176.81 350.498 165.949 347.422C164.487 346.004 163.094 344.073 162.369 342.043C161.607 339.907 161.623 337.82 162.836 335.986C164.09 334.09 166.854 332.106 172.395 330.774C177.905 329.449 185.937 328.827 197.374 329.452L245.016 334.88C245.082 334.887 245.148 334.891 245.215 334.891L259.812 334.891C260.784 334.891 261.573 334.103 261.573 333.131C261.573 332.158 260.784 331.37 259.812 331.37L246.975 331.37ZM73.4639 252.63L68.7531 247.087C72.7874 243.554 76.0363 240.049 78.2751 236.772C80.7131 233.203 82.1503 229.617 81.6979 226.45C81.209 223.026 78.6442 220.732 74.645 219.631C70.7164 218.548 65.116 218.5 57.7278 219.602C55.3946 219.95 53.3153 220.51 51.474 221.261L46.9596 207.863C45.7047 204.139 47.7411 200.108 51.4836 198.909L66.1801 194.199C69.927 192.998 73.9309 195.101 75.0695 198.867L87.4594 239.848C88.499 243.287 86.7834 246.957 83.4784 248.364L73.4639 252.63Z" fill="#222B27"/>
<path d="M197.119 359.924C197.119 356.73 194.53 354.141 191.336 354.141H57.9837C54.7899 354.141 52.2008 356.73 52.2008 359.924V361.532C52.2008 364.726 54.7899 367.315 57.9837 367.315H191.336C194.53 367.315 197.119 364.726 197.119 361.532V359.924Z" fill="#F2F4EF"/>
<path fill-rule="evenodd" clip-rule="evenodd" d="M57.9837 357.032H191.336C192.933 357.032 194.227 358.327 194.227 359.924V361.532C194.227 363.129 192.933 364.424 191.336 364.424H57.9837C56.3868 364.424 55.0923 363.129 55.0923 361.532V359.924C55.0923 358.327 56.3868 357.032 57.9837 357.032ZM191.336 354.141C194.53 354.141 197.119 356.73 197.119 359.924V361.532C197.119 364.726 194.53 367.315 191.336 367.315H57.9837C54.7899 367.315 52.2008 364.726 52.2008 361.532V359.924C52.2008 356.73 54.7899 354.141 57.9837 354.141H191.336Z" fill="#222B27"/>
<path d="M131.735 286.283C130.773 284.275 128.745 282.998 126.52 282.998H24.4942C20.238 282.998 17.44 287.441 19.2787 291.279L49.077 353.49C50.0385 355.497 52.0668 356.775 54.2925 356.775H156.318C160.574 356.775 163.372 352.332 161.533 348.493L131.735 286.283Z" fill="#F2F4EF"/>
<path fill-rule="evenodd" clip-rule="evenodd" d="M24.4942 285.89H126.52C127.632 285.89 128.646 286.528 129.127 287.532L158.926 349.743C159.845 351.662 158.446 353.883 156.318 353.883H54.2925C53.1796 353.883 52.1655 353.244 51.6848 352.241L21.8864 290.03C20.9671 288.111 22.366 285.89 24.4942 285.89ZM126.52 282.998C128.745 282.998 130.773 284.275 131.735 286.283L161.533 348.493C163.372 352.332 160.574 356.775 156.318 356.775H54.2925C52.0668 356.775 50.0385 355.497 49.077 353.49L19.2787 291.279C17.44 287.441 20.238 282.998 24.4942 282.998H126.52Z" fill="#222B27"/>
</svg>
